Coordinates
version=1
nRows=30
nColumns=30
inDegrees=yes

Units are S.I. units (second, meters, Newtons, ...)
Angles are in degrees.

endheader
time	floatyaw	floatroll	floatpitch	floatx	floaty	floatz	pro_sup_l	deviation_l	flexion_l	cmc_flexion_l	cmc_abduction_l	mp_flexion_l	ip_flexion_l	2mcp_flexion_l	2mcp_abduction_l	2pm_flexion_l	2md_flexion_l	3mcp_flexion_l	3mcp_abduction_l	3pm_flexion_l	3md_flexion_l	4mcp_flexion_l	4mcp_abduction_l	4pm_flexion_l	4md_flexion_l	5mcp_flexion_l	5mcp_abduction_l	5pm_flexion_l	5md_flexion_l
-0.495000	-2.367547	-3.808797	97.590660	-0.094893	-0.182026	-0.027538	89.443838	3.727473	-1.884566	12.223419	6.307068	-22.652664	-34.894945	38.096868	9.951533	47.955852	33.063769	22.898351	5.339716	46.677133	32.424669	12.429362	-4.729008	61.135617	42.092895	9.349731	-10.619445	59.957398	40.502356
-0.485000	-2.367547	-3.808797	97.590660	-0.093881	-0.181504	-0.026903	89.417602	3.896346	-1.794271	12.082840	6.400357	-22.674322	-34.939304	38.130746	9.901898	48.196780	33.151878	23.036156	5.379494	47.017287	32.522617	12.687026	-4.721826	61.401399	42.095641	9.608396	-10.681958	60.076518	40.518262
-0.475000	-2.367547	-3.808797	97.590660	-0.092788	-0.180978	-0.026272	89.304215	4.106925	-1.753140	11.899973	6.536522	-22.700709	-35.010156	38.253975	9.852539	48.432961	33.223389	23.292336	5.425107	47.402236	32.648133	13.093667	-4.729604	61.705173	42.127968	9.919596	-10.716754	60.310110	40.597576
-0.465000	-2.367547	-3.808797	97.590660	-0.091645	-0.180414	-0.025643	89.155311	4.340556	-1.769040	11.718668	6.752719	-22.738494	-35.128138	38.422945	9.801207	48.608864	33.264495	23.639954	5.462047	47.729710	32.767425	13.588060	-4.750281	61.961134	42.183541	10.243266	-10.695765	60.606833	40.709455
-0.455000	-2.367547	-3.808797	97.590660	-0.090480	-0.179778	-0.025005	89.034168	4.573799	-1.831140	11.584929	7.070503	-22.789930	-35.300423	38.572441	9.742141	48.685559	33.269060	24.017288	5.478201	47.914824	32.846181	14.074695	-4.776676	62.092729	42.248026	10.529338	-10.607106	60.883634	40.806184
-0.445000	-2.367547	-3.808797	97.590660	-0.089309	-0.179055	-0.024344	88.995770	4.786250	-1.915690	11.530161	7.485632	-22.849792	-35.512564	38.641823	9.667730	48.654758	33.241730	24.347395	5.468694	47.925021	32.864493	14.459178	-4.798700	62.062427	42.304661	10.737049	-10.459249	61.051669	40.840859
-0.435000	-2.367547	-3.808797	97.590660	-0.088123	-0.178249	-0.023647	89.068332	4.966933	-1.996150	11.559801	7.964954	-22.908315	-35.733310	38.600917	9.572575	48.541396	33.198597	24.569357	5.437849	47.790821	32.827272	14.686364	-4.807679	61.887900	42.343057	10.856126	-10.277397	61.048826	40.786007
-0.425000	-2.367547	-3.808797	97.590660	-0.086897	-0.177395	-0.022904	89.243705	5.117724	-2.053365	11.649835	8.452710	-22.958092	-35.929033	38.463574	9.458597	48.394794	33.164680	24.666515	5.397759	47.588735	32.765588	14.764945	-4.800916	61.637667	42.365840	10.918762	-10.095487	60.865978	40.645866
-0.415000	-2.367547	-3.808797	97.590660	-0.085602	-0.176550	-0.022117	89.480602	5.253037	-2.082167	11.751790	8.886593	-22.999498	-36.077941	38.284384	9.338185	48.271684	33.167428	24.677171	5.364354	47.405564	32.727574	14.767483	-4.783935	61.407138	42.388146	10.993167	-9.947422	60.555802	40.457914
-0.405000	-2.367547	-3.808797	97.590660	-0.084217	-0.175770	-0.021293	89.718869	5.394643	-2.091877	11.806486	9.220596	-23.040140	-36.176279	38.141394	9.232349	48.216301	33.226645	24.681906	5.352230	47.301087	32.761071	14.804012	-4.768637	61.284077	42.429194	11.158004	-9.858682	60.218969	40.282379
-0.395000	-2.367547	-3.808797	97.590660	-0.082743	-0.175094	-0.020448	89.898543	5.561803	-2.100295	11.764452	9.446533	-23.088541	-36.235505	38.110976	9.163257	48.245093	33.344221	24.772673	5.369652	47.287586	32.893849	14.977936	-4.767739	61.317526	42.500478	11.468020	-9.838710	59.971155	40.181630
-0.385000	-2.367547	-3.808797	97.590660	-0.081201	-0.174520	-0.019597	89.976758	5.760757	-2.124200	11.605814	9.602506	-23.146983	-36.274638	38.241519	9.144115	48.343871	33.499961	25.016048	5.415325	47.336698	33.120125	15.341702	-4.788199	61.503107	42.598053	11.927569	-9.876208	59.902240	40.195353
-0.375000	-2.367547	-3.808797	97.590660	-0.079638	-0.174009	-0.018755	89.938338	5.980428	-2.171937	11.349496	9.759824	-23.208814	-36.312393	38.533372	9.171711	48.479693	33.658962	25.424862	5.478427	47.408175	33.401816	15.872145	-4.827181	61.790249	42.704876	12.486900	-9.941287	60.042875	40.321336
-0.365000	-2.367547	-3.808797	97.590660	-0.078107	-0.173500	-0.017937	89.799311	6.198475	-2.242373	11.045321	9.990818	-23.261441	-36.361034	38.933083	9.226211	48.620143	33.789287	25.949829	5.542610	47.480661	33.686735	16.478694	-4.872922	62.106647	42.802739	13.065580	-9.996667	60.352721	40.512680
-0.355000	-2.367547	-3.808797	97.590660	-0.076657	-0.172934	-0.017152	89.603626	6.394357	-2.329656	10.752313	10.332864	-23.292269	-36.422510	39.348170	9.278858	48.746705	33.879196	26.496489	5.592875	47.563456	33.934855	17.042905	-4.910261	62.387313	42.885663	13.590929	-10.014218	60.738823	40.696764
-0.345000	-2.367547	-3.808797	97.590660	-0.075303	-0.172279	-0.016399	89.412688	6.560092	-2.428544	10.514982	10.769272	-23.294541	-36.488802	39.681620	9.303727	48.853861	33.940579	26.962961	5.622202	47.682949	34.135784	17.471639	-4.928018	62.594588	42.964636	14.027407	-9.987424	61.099899	40.809581
-0.335000	-2.367547	-3.808797	97.590660	-0.074027	-0.171535	-0.015665	89.287747	6.701129	-2.534756	10.349459	11.239140	-23.271334	-36.548061	39.873858	9.287907	48.937978	33.995549	27.283649	5.634122	47.856752	34.305488	17.738593	-4.924192	62.722530	43.060314	14.378722	-9.931673	61.375600	40.827910
-0.325000	-2.367547	-3.808797	97.590660	-0.072781	-0.170737	-0.014929	89.268544	6.827842	-2.639490	10.242961	11.670681	-23.236001	-36.593478	39.932080	9.236448	48.988522	34.058203	27.458846	5.639512	48.076823	34.466605	17.895179	-4.906042	62.789413	43.190282	14.666570	-9.873388	61.571967	40.780786
-0.315000	-2.367547	-3.808797	97.590660	-0.071514	-0.169934	-0.014172	89.356542	6.945273	-2.722952	10.161862	12.018925	-23.207295	-36.628049	39.931171	9.171335	48.990935	34.127329	27.555242	5.649409	48.314300	34.629425	18.047624	-4.885006	62.827645	43.360952	14.908395	-9.837495	61.746857	40.733248
-0.305000	-2.367547	-3.808797	97.590660	-0.070189	-0.169183	-0.013390	89.514133	7.048979	-2.753729	10.062854	12.288012	-23.200148	-36.661266	39.985049	9.125219	48.939659	34.194671	27.676541	5.668116	48.541228	34.787444	18.312836	-4.869441	62.877031	43.568037	15.113281	-9.841943	61.965857	40.751833
-0.295000	-2.367547	-3.808797	97.590660	-0.068791	-0.168516	-0.012589	89.687417	7.129203	-2.697003	9.906096	12.528240	-23.217258	-36.701019	40.201093	9.130998	48.850766	34.259152	27.918879	5.690349	48.751278	34.926371	18.773127	-4.859500	62.979614	43.800697	15.294345	-9.899121	62.258795	40.871503
-0.285000	-2.367547	-3.808797	97.590660	-0.067324	-0.167930	-0.011775	89.846189	7.179159	-2.527689	9.670818	12.810883	-23.247543	-36.747947	40.635794	9.208935	48.762705	34.333209	28.332994	5.703260	48.961994	35.034204	19.446861	-4.847125	63.170831	44.042668	15.478743	-10.016634	62.603526	41.081371
-0.275000	-2.367547	-3.808797	97.590660	-0.065805	-0.167371	-0.010936	90.017299	7.200309	-2.240059	9.369413	13.193482	-23.272811	-36.796259	41.267408	9.354339	48.721717	34.435423	28.910307	5.691202	49.194890	35.102507	20.282973	-4.820726	63.465546	44.270073	15.699013	-10.191486	62.941712	41.334041
-0.265000	-2.367547	-3.808797	97.590660	-0.064250	-0.166740	-0.010037	90.283125	7.199884	-1.847762	9.051356	13.692146	-23.277326	-36.838685	41.995115	9.530393	48.760153	34.576048	29.596350	5.640622	49.447792	35.121351	21.178886	-4.771218	63.844307	44.452042	15.969636	-10.400611	63.209878	41.569938
-0.255000	-2.367547	-3.808797	97.590660	-0.062671	-0.165918	-0.009024	90.736717	7.182604	-1.376087	8.790410	14.273513	-23.253232	-36.870315	42.666349	9.671498	48.881782	34.748154	30.321089	5.544289	49.682506	35.078859	22.016273	-4.695912	64.248968	44.559131	16.270916	-10.598263	63.363705	41.742315
-0.245000	-2.367547	-3.808797	97.590660	-0.061061	-0.164793	-0.007835	91.417813	7.145457	-0.855612	8.657548	14.868570	-23.199279	-36.888160	43.125229	9.700394	49.062162	34.931731	31.029379	5.405419	49.840768	34.971525	22.704579	-4.598970	64.594161	44.576686	16.559820	-10.728761	63.384252	41.832147
-0.235000	-2.367547	-3.808797	97.590660	-0.059379	-0.163279	-0.006411	92.272626	7.085167	-0.326208	8.690845	15.399692	-23.116352	-36.887146	43.266028	9.556061	49.260292	35.106408	31.697575	5.241033	49.879499	34.818541	23.216717	-4.489385	64.792367	44.513784	16.804650	-10.751670	63.269824	41.849661
-0.225000	-2.367547	-3.808797	97.590660	-0.057533	-0.161312	-0.004701	93.167698	7.019023	0.148247	8.875915	15.808963	-23.005173	-36.855899	43.070074	9.221235	49.432978	35.261636	32.330417	5.081975	49.801622	34.666293	23.600365	-4.378327	64.781802	44.399868	17.017888	-10.664630	63.026154	41.825270
-0.215000	-2.367547	-3.808797	97.590660	-0.055397	-0.158847	-0.002663	93.953364	7.006484	0.464744	9.145740	16.081086	-22.868408	-36.776400	42.608552	8.734481	49.548387	35.397487	32.942164	4.967271	49.663039	34.575499	23.957500	-4.277372	64.545702	44.270300	17.259581	-10.507242	62.667328	41.795891
-0.205000	-2.367547	-3.808797	97.590660	-0.052828	-0.155838	-0.000268	94.541305	7.152936	0.479719	9.400763	16.259925	-22.714635	-36.629785	42.009582	8.177379	49.599130	35.518435	33.535056	4.933083	49.552588	34.596584	24.401021	-4.197892	64.118828	44.150889	17.604027	-10.340272	62.231608	41.793381
